<?xml version="1.0" encoding="UTF-8"?>
<svg width="282px" height="160px" viewBox="0 0 282 160" version="1.1" xmlns="http://www.w3.org/2000/svg" xmlns:xlink="http://www.w3.org/1999/xlink">
    <title>Communautés</title>
    <g id="Page-1" stroke="none" stroke-width="1" fill="none" fill-rule="evenodd">
        <g id="PROJET_COMETE_DESKTOP_V_1.1" transform="translate(-1038.000000, -1068.000000)">
            <g id="Communautés" transform="translate(1038.000000, 1068.000000)">
                <rect id="Background" fill="#F9F8F6" x="0" y="0" width="282" height="159"/>
                <path d="M163.027874,20.2836396 C180.245188,27.402683 192.361075,44.3627571 195.294395,62.0556738 C198.227716,79.7485906 191.850933,98.1743501 179.224902,111.260827 C166.598872,124.347304 147.723594,132.19919 128.338174,137.433781 C108.825218,142.773063 88.8021196,145.495051 73.4978404,139.946384 C58.1935612,134.397718 47.6081015,120.473707 38.425534,106.340312 C29.2429665,92.3116084 21.4632912,78.0735216 24.7792184,65.929271 C28.2226812,53.7850204 42.6342107,43.839298 57.1732759,36.4061791 C71.7123412,28.9730603 86.1238707,23.9478531 104.616541,20.074256 C123.109212,16.095967 145.683024,13.269288 163.027874,20.2836396 Z" id="Blob" fill="#F4F3EF"/>
                <rect id="Trait" fill="#E4E2D8" x="25" y="159" width="234" height="1"/>
                <path d="M77,139 C78.1045695,139 79,139.895431 79,141 C79,142.104569 78.1045695,143 77,143 C75.8954305,143 75,142.104569 75,141 C75,139.895431 75.8954305,139 77,139 Z M89,139 C90.1045695,139 91,139.895431 91,141 C91,142.104569 90.1045695,143 89,143 C87.8954305,143 87,142.104569 87,141 C87,139.895431 87.8954305,139 89,139 Z M101,139 C102.104569,139 103,139.895431 103,141 C103,142.104569 102.104569,143 101,143 C99.8954305,143 99,142.104569 99,141 C99,139.895431 99.8954305,139 101,139 Z M113,139 C114.104569,139 115,139.895431 115,141 C115,142.104569 114.104569,143 113,143 C111.895431,143 111,142.104569 111,141 C111,139.895431 111.895431,139 113,139 Z M125,139 C126.104569,139 127,139.895431 127,141 C127,142.104569 126.104569,143 125,143 C123.895431,143 123,142.104569 123,141 C123,139.895431 123.895431,139 125,139 Z M137,139 C138.104569,139 139,139.895431 139,141 C139,142.104569 138.104569,143 137,143 C135.895431,143 135,142.104569 135,141 C135,139.895431 135.895431,139 137,139 Z M149,139 C150.104569,139 151,139.895431 151,141 C151,142.104569 150.104569,143 149,143 C147.895431,143 147,142.104569 147,141 C147,139.895431 147.895431,139 149,139 Z M161,139 C162.104569,139 163,139.895431 163,141 C163,142.104569 162.104569,143 161,143 C159.895431,143 159,142.104569 159,141 C159,139.895431 159.895431,139 161,139 Z M173,139 C174.104569,139 175,139.895431 175,141 C175,142.104569 174.104569,143 173,143 C171.895431,143 171,142.104569 171,141 C171,139.895431 171.895431,139 173,139 Z M185,139 C186.104569,139 187,139.895431 187,141 C187,142.104569 186.104569,143 185,143 C183.895431,143 183,142.104569 183,141 C183,139.895431 183.895431,139 185,139 Z M197,139 C198.104569,139 199,139.895431 199,141 C199,142.104569 198.104569,143 197,143 C195.895431,143 195,142.104569 195,141 C195,139.895431 195.895431,139 197,139 Z M209,139 C210.104569,139 211,139.895431 211,141 C211,142.104569 210.104569,143 209,143 C207.895431,143 207,142.104569 207,141 C207,139.895431 207.895431,139 209,139 Z M221,139 C222.104569,139 223,139.895431 223,141 C223,142.104569 222.104569,143 221,143 C219.895431,143 219,142.104569 219,141 C219,139.895431 219.895431,139 221,139 Z M233,139 C234.104569,139 235,139.895431 235,141 C235,142.104569 234.104569,143 233,143 C231.895431,143 231,142.104569 231,141 C231,139.895431 231.895431,139 233,139 Z M245,139 C246.104569,139 247,139.895431 247,141 C247,142.104569 246.104569,143 245,143 C243.895431,143 243,142.104569 243,141 C243,139.895431 243.895431,139 245,139 Z M257,139 C258.104569,139 259,139.895431 259,141 C259,142.104569 258.104569,143 257,143 C255.895431,143 255,142.104569 255,141 C255,139.895431 255.895431,139 257,139 Z M173,127 C174.104569,127 175,127.895431 175,129 C175,130.104569 174.104569,131 173,131 C171.895431,131 171,130.104569 171,129 C171,127.895431 171.895431,127 173,127 Z M185,127 C186.104569,127 187,127.895431 187,129 C187,130.104569 186.104569,131 185,131 C183.895431,131 183,130.104569 183,129 C183,127.895431 183.895431,127 185,127 Z M197,127 C198.104569,127 199,127.895431 199,129 C199,130.104569 198.104569,131 197,131 C195.895431,131 195,130.104569 195,129 C195,127.895431 195.895431,127 197,127 Z M209,127 C210.104569,127 211,127.895431 211,129 C211,130.104569 210.104569,131 209,131 C207.895431,131 207,130.104569 207,129 C207,127.895431 207.895431,127 209,127 Z M77,127 C78.1045695,127 79,127.895431 79,129 C79,130.104569 78.1045695,131 77,131 C75.8954305,131 75,130.104569 75,129 C75,127.895431 75.8954305,127 77,127 Z M101,127 C102.104569,127 103,127.895431 103,129 C103,130.104569 102.104569,131 101,131 C99.8954305,131 99,130.104569 99,129 C99,127.895431 99.8954305,127 101,127 Z M125,127 C126.104569,127 127,127.895431 127,129 C127,130.104569 126.104569,131 125,131 C123.895431,131 123,130.104569 123,129 C123,127.895431 123.895431,127 125,127 Z M149,127 C150.104569,127 151,127.895431 151,129 C151,130.104569 150.104569,131 149,131 C147.895431,131 147,130.104569 147,129 C147,127.895431 147.895431,127 149,127 Z M161,127 C162.104569,127 163,127.895431 163,129 C163,130.104569 162.104569,131 161,131 C159.895431,131 159,130.104569 159,129 C159,127.895431 159.895431,127 161,127 Z M233,127 C234.104569,127 235,127.895431 235,129 C235,130.104569 234.104569,131 233,131 C231.895431,131 231,130.104569 231,129 C231,127.895431 231.895431,127 233,127 Z M89,127 C90.1045695,127 91,127.895431 91,129 C91,130.104569 90.1045695,131 89,131 C87.8954305,131 87,130.104569 87,129 C87,127.895431 87.8954305,127 89,127 Z M245,127 C246.104569,127 247,127.895431 247,129 C247,130.104569 246.104569,131 245,131 C243.895431,131 243,130.104569 243,129 C243,127.895431 243.895431,127 245,127 Z M113,127 C114.104569,127 115,127.895431 115,129 C115,130.104569 114.104569,131 113,131 C111.895431,131 111,130.104569 111,129 C111,127.895431 111.895431,127 113,127 Z M257,127 C258.104569,127 259,127.895431 259,129 C259,130.104569 258.104569,131 257,131 C255.895431,131 255,130.104569 255,129 C255,127.895431 255.895431,127 257,127 Z M137,127 C138.104569,127 139,127.895431 139,129 C139,130.104569 138.104569,131 137,131 C135.895431,131 135,130.104569 135,129 C135,127.895431 135.895431,127 137,127 Z M221,127 C222.104569,127 223,127.895431 223,129 C223,130.104569 222.104569,131 221,131 C219.895431,131 219,130.104569 219,129 C219,127.895431 219.895431,127 221,127 Z M101,115 C102.104569,115 103,115.895431 103,117 C103,118.104569 102.104569,119 101,119 C99.8954305,119 99,118.104569 99,117 C99,115.895431 99.8954305,115 101,115 Z M125,115 C126.104569,115 127,115.895431 127,117 C127,118.104569 126.104569,119 125,119 C123.895431,119 123,118.104569 123,117 C123,115.895431 123.895431,115 125,115 Z M137,115 C138.104569,115 139,115.895431 139,117 C139,118.104569 138.104569,119 137,119 C135.895431,119 135,118.104569 135,117 C135,115.895431 135.895431,115 137,115 Z M149,115 C150.104569,115 151,115.895431 151,117 C151,118.104569 150.104569,119 149,119 C147.895431,119 147,118.104569 147,117 C147,115.895431 147.895431,115 149,115 Z M161,115 C162.104569,115 163,115.895431 163,117 C163,118.104569 162.104569,119 161,119 C159.895431,119 159,118.104569 159,117 C159,115.895431 159.895431,115 161,115 Z M77,115 C78.1045695,115 79,115.895431 79,117 C79,118.104569 78.1045695,119 77,119 C75.8954305,119 75,118.104569 75,117 C75,115.895431 75.8954305,115 77,115 Z M89,115 C90.1045695,115 91,115.895431 91,117 C91,118.104569 90.1045695,119 89,119 C87.8954305,119 87,118.104569 87,117 C87,115.895431 87.8954305,115 89,115 Z M113,115 C114.104569,115 115,115.895431 115,117 C115,118.104569 114.104569,119 113,119 C111.895431,119 111,118.104569 111,117 C111,115.895431 111.895431,115 113,115 Z M173,115 C174.104569,115 175,115.895431 175,117 C175,118.104569 174.104569,119 173,119 C171.895431,119 171,118.104569 171,117 C171,115.895431 171.895431,115 173,115 Z M185,115 C186.104569,115 187,115.895431 187,117 C187,118.104569 186.104569,119 185,119 C183.895431,119 183,118.104569 183,117 C183,115.895431 183.895431,115 185,115 Z M197,115 C198.104569,115 199,115.895431 199,117 C199,118.104569 198.104569,119 197,119 C195.895431,119 195,118.104569 195,117 C195,115.895431 195.895431,115 197,115 Z M209,115 C210.104569,115 211,115.895431 211,117 C211,118.104569 210.104569,119 209,119 C207.895431,119 207,118.104569 207,117 C207,115.895431 207.895431,115 209,115 Z M221,115 C222.104569,115 223,115.895431 223,117 C223,118.104569 222.104569,119 221,119 C219.895431,119 219,118.104569 219,117 C219,115.895431 219.895431,115 221,115 Z M233,115 C234.104569,115 235,115.895431 235,117 C235,118.104569 234.104569,119 233,119 C231.895431,119 231,118.104569 231,117 C231,115.895431 231.895431,115 233,115 Z M245,115 C246.104569,115 247,115.895431 247,117 C247,118.104569 246.104569,119 245,119 C243.895431,119 243,118.104569 243,117 C243,115.895431 243.895431,115 245,115 Z M257,115 C258.104569,115 259,115.895431 259,117 C259,118.104569 258.104569,119 257,119 C255.895431,119 255,118.104569 255,117 C255,115.895431 255.895431,115 257,115 Z M77,103 C78.1045695,103 79,103.895431 79,105 C79,106.104569 78.1045695,107 77,107 C75.8954305,107 75,106.104569 75,105 C75,103.895431 75.8954305,103 77,103 Z M89,103 C90.1045695,103 91,103.895431 91,105 C91,106.104569 90.1045695,107 89,107 C87.8954305,107 87,106.104569 87,105 C87,103.895431 87.8954305,103 89,103 Z M101,103 C102.104569,103 103,103.895431 103,105 C103,106.104569 102.104569,107 101,107 C99.8954305,107 99,106.104569 99,105 C99,103.895431 99.8954305,103 101,103 Z M113,103 C114.104569,103 115,103.895431 115,105 C115,106.104569 114.104569,107 113,107 C111.895431,107 111,106.104569 111,105 C111,103.895431 111.895431,103 113,103 Z M125,103 C126.104569,103 127,103.895431 127,105 C127,106.104569 126.104569,107 125,107 C123.895431,107 123,106.104569 123,105 C123,103.895431 123.895431,103 125,103 Z M137,103 C138.104569,103 139,103.895431 139,105 C139,106.104569 138.104569,107 137,107 C135.895431,107 135,106.104569 135,105 C135,103.895431 135.895431,103 137,103 Z M149,103 C150.104569,103 151,103.895431 151,105 C151,106.104569 150.104569,107 149,107 C147.895431,107 147,106.104569 147,105 C147,103.895431 147.895431,103 149,103 Z M161,103 C162.104569,103 163,103.895431 163,105 C163,106.104569 162.104569,107 161,107 C159.895431,107 159,106.104569 159,105 C159,103.895431 159.895431,103 161,103 Z M173,103 C174.104569,103 175,103.895431 175,105 C175,106.104569 174.104569,107 173,107 C171.895431,107 171,106.104569 171,105 C171,103.895431 171.895431,103 173,103 Z M185,103 C186.104569,103 187,103.895431 187,105 C187,106.104569 186.104569,107 185,107 C183.895431,107 183,106.104569 183,105 C183,103.895431 183.895431,103 185,103 Z M197,103 C198.104569,103 199,103.895431 199,105 C199,106.104569 198.104569,107 197,107 C195.895431,107 195,106.104569 195,105 C195,103.895431 195.895431,103 197,103 Z M209,103 C210.104569,103 211,103.895431 211,105 C211,106.104569 210.104569,107 209,107 C207.895431,107 207,106.104569 207,105 C207,103.895431 207.895431,103 209,103 Z M221,103 C222.104569,103 223,103.895431 223,105 C223,106.104569 222.104569,107 221,107 C219.895431,107 219,106.104569 219,105 C219,103.895431 219.895431,103 221,103 Z M233,103 C234.104569,103 235,103.895431 235,105 C235,106.104569 234.104569,107 233,107 C231.895431,107 231,106.104569 231,105 C231,103.895431 231.895431,103 233,103 Z M245,103 C246.104569,103 247,103.895431 247,105 C247,106.104569 246.104569,107 245,107 C243.895431,107 243,106.104569 243,105 C243,103.895431 243.895431,103 245,103 Z M257,103 C258.104569,103 259,103.895431 259,105 C259,106.104569 258.104569,107 257,107 C255.895431,107 255,106.104569 255,105 C255,103.895431 255.895431,103 257,103 Z M77,91 C78.1045695,91 79,91.8954305 79,93 C79,94.1045695 78.1045695,95 77,95 C75.8954305,95 75,94.1045695 75,93 C75,91.8954305 75.8954305,91 77,91 Z M89,91 C90.1045695,91 91,91.8954305 91,93 C91,94.1045695 90.1045695,95 89,95 C87.8954305,95 87,94.1045695 87,93 C87,91.8954305 87.8954305,91 89,91 Z M101,91 C102.104569,91 103,91.8954305 103,93 C103,94.1045695 102.104569,95 101,95 C99.8954305,95 99,94.1045695 99,93 C99,91.8954305 99.8954305,91 101,91 Z M113,91 C114.104569,91 115,91.8954305 115,93 C115,94.1045695 114.104569,95 113,95 C111.895431,95 111,94.1045695 111,93 C111,91.8954305 111.895431,91 113,91 Z M125,91 C126.104569,91 127,91.8954305 127,93 C127,94.1045695 126.104569,95 125,95 C123.895431,95 123,94.1045695 123,93 C123,91.8954305 123.895431,91 125,91 Z M137,91 C138.104569,91 139,91.8954305 139,93 C139,94.1045695 138.104569,95 137,95 C135.895431,95 135,94.1045695 135,93 C135,91.8954305 135.895431,91 137,91 Z M149,91 C150.104569,91 151,91.8954305 151,93 C151,94.1045695 150.104569,95 149,95 C147.895431,95 147,94.1045695 147,93 C147,91.8954305 147.895431,91 149,91 Z M161,91 C162.104569,91 163,91.8954305 163,93 C163,94.1045695 162.104569,95 161,95 C159.895431,95 159,94.1045695 159,93 C159,91.8954305 159.895431,91 161,91 Z M173,91 C174.104569,91 175,91.8954305 175,93 C175,94.1045695 174.104569,95 173,95 C171.895431,95 171,94.1045695 171,93 C171,91.8954305 171.895431,91 173,91 Z M185,91 C186.104569,91 187,91.8954305 187,93 C187,94.1045695 186.104569,95 185,95 C183.895431,95 183,94.1045695 183,93 C183,91.8954305 183.895431,91 185,91 Z M197,91 C198.104569,91 199,91.8954305 199,93 C199,94.1045695 198.104569,95 197,95 C195.895431,95 195,94.1045695 195,93 C195,91.8954305 195.895431,91 197,91 Z M209,91 C210.104569,91 211,91.8954305 211,93 C211,94.1045695 210.104569,95 209,95 C207.895431,95 207,94.1045695 207,93 C207,91.8954305 207.895431,91 209,91 Z M221,91 C222.104569,91 223,91.8954305 223,93 C223,94.1045695 222.104569,95 221,95 C219.895431,95 219,94.1045695 219,93 C219,91.8954305 219.895431,91 221,91 Z M233,91 C234.104569,91 235,91.8954305 235,93 C235,94.1045695 234.104569,95 233,95 C231.895431,95 231,94.1045695 231,93 C231,91.8954305 231.895431,91 233,91 Z M245,91 C246.104569,91 247,91.8954305 247,93 C247,94.1045695 246.104569,95 245,95 C243.895431,95 243,94.1045695 243,93 C243,91.8954305 243.895431,91 245,91 Z M257,91 C258.104569,91 259,91.8954305 259,93 C259,94.1045695 258.104569,95 257,95 C255.895431,95 255,94.1045695 255,93 C255,91.8954305 255.895431,91 257,91 Z M77,79 C78.1045695,79 79,79.8954305 79,81 C79,82.1045695 78.1045695,83 77,83 C75.8954305,83 75,82.1045695 75,81 C75,79.8954305 75.8954305,79 77,79 Z M89,79 C90.1045695,79 91,79.8954305 91,81 C91,82.1045695 90.1045695,83 89,83 C87.8954305,83 87,82.1045695 87,81 C87,79.8954305 87.8954305,79 89,79 Z M101,79 C102.104569,79 103,79.8954305 103,81 C103,82.1045695 102.104569,83 101,83 C99.8954305,83 99,82.1045695 99,81 C99,79.8954305 99.8954305,79 101,79 Z M113,79 C114.104569,79 115,79.8954305 115,81 C115,82.1045695 114.104569,83 113,83 C111.895431,83 111,82.1045695 111,81 C111,79.8954305 111.895431,79 113,79 Z M125,79 C126.104569,79 127,79.8954305 127,81 C127,82.1045695 126.104569,83 125,83 C123.895431,83 123,82.1045695 123,81 C123,79.8954305 123.895431,79 125,79 Z M137,79 C138.104569,79 139,79.8954305 139,81 C139,82.1045695 138.104569,83 137,83 C135.895431,83 135,82.1045695 135,81 C135,79.8954305 135.895431,79 137,79 Z M149,79 C150.104569,79 151,79.8954305 151,81 C151,82.1045695 150.104569,83 149,83 C147.895431,83 147,82.1045695 147,81 C147,79.8954305 147.895431,79 149,79 Z M161,79 C162.104569,79 163,79.8954305 163,81 C163,82.1045695 162.104569,83 161,83 C159.895431,83 159,82.1045695 159,81 C159,79.8954305 159.895431,79 161,79 Z M173,79 C174.104569,79 175,79.8954305 175,81 C175,82.1045695 174.104569,83 173,83 C171.895431,83 171,82.1045695 171,81 C171,79.8954305 171.895431,79 173,79 Z M185,79 C186.104569,79 187,79.8954305 187,81 C187,82.1045695 186.104569,83 185,83 C183.895431,83 183,82.1045695 183,81 C183,79.8954305 183.895431,79 185,79 Z M197,79 C198.104569,79 199,79.8954305 199,81 C199,82.1045695 198.104569,83 197,83 C195.895431,83 195,82.1045695 195,81 C195,79.8954305 195.895431,79 197,79 Z M209,79 C210.104569,79 211,79.8954305 211,81 C211,82.1045695 210.104569,83 209,83 C207.895431,83 207,82.1045695 207,81 C207,79.8954305 207.895431,79 209,79 Z M221,79 C222.104569,79 223,79.8954305 223,81 C223,82.1045695 222.104569,83 221,83 C219.895431,83 219,82.1045695 219,81 C219,79.8954305 219.895431,79 221,79 Z M233,79 C234.104569,79 235,79.8954305 235,81 C235,82.1045695 234.104569,83 233,83 C231.895431,83 231,82.1045695 231,81 C231,79.8954305 231.895431,79 233,79 Z M245,79 C246.104569,79 247,79.8954305 247,81 C247,82.1045695 246.104569,83 245,83 C243.895431,83 243,82.1045695 243,81 C243,79.8954305 243.895431,79 245,79 Z M257,79 C258.104569,79 259,79.8954305 259,81 C259,82.1045695 258.104569,83 257,83 C255.895431,83 255,82.1045695 255,81 C255,79.8954305 255.895431,79 257,79 Z M77,67 C78.1045695,67 79,67.8954305 79,69 C79,70.1045695 78.1045695,71 77,71 C75.8954305,71 75,70.1045695 75,69 C75,67.8954305 75.8954305,67 77,67 Z M89,67 C90.1045695,67 91,67.8954305 91,69 C91,70.1045695 90.1045695,71 89,71 C87.8954305,71 87,70.1045695 87,69 C87,67.8954305 87.8954305,67 89,67 Z M101,67 C102.104569,67 103,67.8954305 103,69 C103,70.1045695 102.104569,71 101,71 C99.8954305,71 99,70.1045695 99,69 C99,67.8954305 99.8954305,67 101,67 Z M113,67 C114.104569,67 115,67.8954305 115,69 C115,70.1045695 114.104569,71 113,71 C111.895431,71 111,70.1045695 111,69 C111,67.8954305 111.895431,67 113,67 Z M125,67 C126.104569,67 127,67.8954305 127,69 C127,70.1045695 126.104569,71 125,71 C123.895431,71 123,70.1045695 123,69 C123,67.8954305 123.895431,67 125,67 Z M137,67 C138.104569,67 139,67.8954305 139,69 C139,70.1045695 138.104569,71 137,71 C135.895431,71 135,70.1045695 135,69 C135,67.8954305 135.895431,67 137,67 Z M149,67 C150.104569,67 151,67.8954305 151,69 C151,70.1045695 150.104569,71 149,71 C147.895431,71 147,70.1045695 147,69 C147,67.8954305 147.895431,67 149,67 Z M161,67 C162.104569,67 163,67.8954305 163,69 C163,70.1045695 162.104569,71 161,71 C159.895431,71 159,70.1045695 159,69 C159,67.8954305 159.895431,67 161,67 Z M173,67 C174.104569,67 175,67.8954305 175,69 C175,70.1045695 174.104569,71 173,71 C171.895431,71 171,70.1045695 171,69 C171,67.8954305 171.895431,67 173,67 Z M185,67 C186.104569,67 187,67.8954305 187,69 C187,70.1045695 186.104569,71 185,71 C183.895431,71 183,70.1045695 183,69 C183,67.8954305 183.895431,67 185,67 Z M197,67 C198.104569,67 199,67.8954305 199,69 C199,70.1045695 198.104569,71 197,71 C195.895431,71 195,70.1045695 195,69 C195,67.8954305 195.895431,67 197,67 Z M209,67 C210.104569,67 211,67.8954305 211,69 C211,70.1045695 210.104569,71 209,71 C207.895431,71 207,70.1045695 207,69 C207,67.8954305 207.895431,67 209,67 Z M221,67 C222.104569,67 223,67.8954305 223,69 C223,70.1045695 222.104569,71 221,71 C219.895431,71 219,70.1045695 219,69 C219,67.8954305 219.895431,67 221,67 Z M233,67 C234.104569,67 235,67.8954305 235,69 C235,70.1045695 234.104569,71 233,71 C231.895431,71 231,70.1045695 231,69 C231,67.8954305 231.895431,67 233,67 Z M245,67 C246.104569,67 247,67.8954305 247,69 C247,70.1045695 246.104569,71 245,71 C243.895431,71 243,70.1045695 243,69 C243,67.8954305 243.895431,67 245,67 Z M257,67 C258.104569,67 259,67.8954305 259,69 C259,70.1045695 258.104569,71 257,71 C255.895431,71 255,70.1045695 255,69 C255,67.8954305 255.895431,67 257,67 Z M77,55 C78.1045695,55 79,55.8954305 79,57 C79,58.1045695 78.1045695,59 77,59 C75.8954305,59 75,58.1045695 75,57 C75,55.8954305 75.8954305,55 77,55 Z M89,55 C90.1045695,55 91,55.8954305 91,57 C91,58.1045695 90.1045695,59 89,59 C87.8954305,59 87,58.1045695 87,57 C87,55.8954305 87.8954305,55 89,55 Z M101,55 C102.104569,55 103,55.8954305 103,57 C103,58.1045695 102.104569,59 101,59 C99.8954305,59 99,58.1045695 99,57 C99,55.8954305 99.8954305,55 101,55 Z M113,55 C114.104569,55 115,55.8954305 115,57 C115,58.1045695 114.104569,59 113,59 C111.895431,59 111,58.1045695 111,57 C111,55.8954305 111.895431,55 113,55 Z M125,55 C126.104569,55 127,55.8954305 127,57 C127,58.1045695 126.104569,59 125,59 C123.895431,59 123,58.1045695 123,57 C123,55.8954305 123.895431,55 125,55 Z M137,55 C138.104569,55 139,55.8954305 139,57 C139,58.1045695 138.104569,59 137,59 C135.895431,59 135,58.1045695 135,57 C135,55.8954305 135.895431,55 137,55 Z M149,55 C150.104569,55 151,55.8954305 151,57 C151,58.1045695 150.104569,59 149,59 C147.895431,59 147,58.1045695 147,57 C147,55.8954305 147.895431,55 149,55 Z M161,55 C162.104569,55 163,55.8954305 163,57 C163,58.1045695 162.104569,59 161,59 C159.895431,59 159,58.1045695 159,57 C159,55.8954305 159.895431,55 161,55 Z M173,55 C174.104569,55 175,55.8954305 175,57 C175,58.1045695 174.104569,59 173,59 C171.895431,59 171,58.1045695 171,57 C171,55.8954305 171.895431,55 173,55 Z M185,55 C186.104569,55 187,55.8954305 187,57 C187,58.1045695 186.104569,59 185,59 C183.895431,59 183,58.1045695 183,57 C183,55.8954305 183.895431,55 185,55 Z M197,55 C198.104569,55 199,55.8954305 199,57 C199,58.1045695 198.104569,59 197,59 C195.895431,59 195,58.1045695 195,57 C195,55.8954305 195.895431,55 197,55 Z M209,55 C210.104569,55 211,55.8954305 211,57 C211,58.1045695 210.104569,59 209,59 C207.895431,59 207,58.1045695 207,57 C207,55.8954305 207.895431,55 209,55 Z M221,55 C222.104569,55 223,55.8954305 223,57 C223,58.1045695 222.104569,59 221,59 C219.895431,59 219,58.1045695 219,57 C219,55.8954305 219.895431,55 221,55 Z M233,55 C234.104569,55 235,55.8954305 235,57 C235,58.1045695 234.104569,59 233,59 C231.895431,59 231,58.1045695 231,57 C231,55.8954305 231.895431,55 233,55 Z M245,55 C246.104569,55 247,55.8954305 247,57 C247,58.1045695 246.104569,59 245,59 C243.895431,59 243,58.1045695 243,57 C243,55.8954305 243.895431,55 245,55 Z M257,55 C258.104569,55 259,55.8954305 259,57 C259,58.1045695 258.104569,59 257,59 C255.895431,59 255,58.1045695 255,57 C255,55.8954305 255.895431,55 257,55 Z" id="Trame" fill="#F4F3EF"/>
                <g id="Icone" transform="translate(78.000000, 16.000000)">
                    <path d="M93.6625,117.475 C94.5378477,117.475 95.25,118.187078 95.25,119.0625 C95.25,119.937848 94.5378477,120.65 93.6625,120.65 C92.7871523,120.65 92.075,119.937848 92.075,119.0625 C92.075,118.187078 92.7871523,117.475 93.6625,117.475 Z M14.2875,22.225 C15.1628477,22.225 15.875,22.9370777 15.875,23.8125 C15.875,24.6878477 15.1628477,25.4 14.2875,25.4 C13.4121523,25.4 12.7,24.6878477 12.7,23.8125 C12.7,22.9370777 13.4121523,22.225 14.2875,22.225 Z M106.3625,15.875 C107.237848,15.875 107.95,16.5870777 107.95,17.4625 C107.95,18.3378477 107.237848,19.05 106.3625,19.05 C105.487152,19.05 104.775,18.3378477 104.775,17.4625 C104.775,16.5870777 105.487152,15.875 106.3625,15.875 Z" id="🎨--Accent-color" fill="#BFBFE3"/>
                    <path d="M77.7875,85.725 C78.664252,85.725 79.375,86.435748 79.375,87.3125 C79.375,88.1266269 78.7621612,88.7976176 77.972636,88.8893197 L77.7875,88.9 L55.5625,88.9 C54.685748,88.9 53.975,88.189252 53.975,87.3125 C53.975,86.4983731 54.5878388,85.8273824 55.377364,85.7356803 L55.5625,85.725 L77.7875,85.725 Z M84.1375,79.375 C85.014252,79.375 85.725,80.085748 85.725,80.9625 C85.725,81.7766269 85.1121612,82.4476176 84.322636,82.5393197 L84.1375,82.55 L55.5625,82.55 C54.685748,82.55 53.975,81.839252 53.975,80.9625 C53.975,80.1483731 54.5878388,79.4773824 55.377364,79.3856803 L55.5625,79.375 L84.1375,79.375 Z M57.15,63.5 C58.9035041,63.5 60.325,64.9214959 60.325,66.675 C60.325,68.1060206 59.3782751,69.3159217 58.076986,69.7125426 C58.2276026,69.7882281 58.3982389,69.8305664 58.5881312,69.844648 L58.7375,69.85 C59.614252,69.85 60.325,70.560748 60.325,71.4375 C60.325,72.314252 59.614252,73.025 58.7375,73.025 C55.5762222,73.025 53.975,70.6231668 53.975,66.675 L53.9800261,66.494832 C54.073429,64.825152 55.4569616,63.5 57.15,63.5 Z M66.675,63.5 C68.4285041,63.5 69.85,64.9214959 69.85,66.675 C69.85,68.1060206 68.9032751,69.3159217 67.601986,69.7125426 C67.7526026,69.7882281 67.9232389,69.8305664 68.1131312,69.844648 L68.2625,69.85 C69.139252,69.85 69.85,70.560748 69.85,71.4375 C69.85,72.314252 69.139252,73.025 68.2625,73.025 C65.1012222,73.025 63.5,70.6231668 63.5,66.675 L63.5050261,66.494832 C63.598429,64.825152 64.9819616,63.5 66.675,63.5 Z M42.8625,47.625 C43.739252,47.625 44.45,48.335748 44.45,49.2125 C44.45,50.0266269 43.8371612,50.6976176 43.047636,50.7893197 L42.8625,50.8 L33.3375,50.8 C32.460748,50.8 31.75,50.089252 31.75,49.2125 C31.75,48.3983731 32.3628388,47.7273824 33.152364,47.6356803 L33.3375,47.625 L42.8625,47.625 Z M49.2125,41.275 C50.089252,41.275 50.8,41.985748 50.8,42.8625 C50.8,43.6766269 50.1871612,44.3476176 49.397636,44.4393197 L49.2125,44.45 L33.3375,44.45 C32.460748,44.45 31.75,43.739252 31.75,42.8625 C31.75,42.0483731 32.3628388,41.3773824 33.152364,41.2856803 L33.3375,41.275 L49.2125,41.275 Z M52.3875,34.925 C53.264252,34.925 53.975,35.635748 53.975,36.5125 C53.975,37.3266269 53.3621612,37.9976176 52.572636,38.0893197 L52.3875,38.1 L33.3375,38.1 C32.460748,38.1 31.75,37.389252 31.75,36.5125 C31.75,35.6983731 32.3628388,35.0273824 33.152364,34.9356803 L33.3375,34.925 L52.3875,34.925 Z" id="🎨-Minor-color" fill="#E1000F"/>
                    <path d="M46.0375,19.05 C56.9183171,19.05 65.5446027,25.4906671 69.735532,35.9206106 C70.0624235,36.7341437 69.6679225,37.6586405 68.8543894,37.985532 C68.0408563,38.3124235 67.1163595,37.9179225 66.789468,37.1043894 C63.061583,27.8268216 55.5588021,22.225 46.0375,22.225 C32.8862194,22.225 22.225,32.8862194 22.225,46.0375 C22.225,51.1426345 23.8336094,56.001014 26.7743718,60.0393647 C27.1472026,60.5513482 27.1766318,61.2292452 26.8664984,61.766713 L26.7505494,61.9402476 L20.6803625,69.85 L30.1625,69.85 C30.9766269,69.85 31.6476176,70.4628388 31.7393197,71.252364 L31.75,71.4375 C31.75,72.2516269 31.1371612,72.9226176 30.347636,73.0143197 L30.1625,73.025 L17.4625,73.025 C16.2061195,73.025 15.4706595,71.6494854 16.1032565,70.6162207 L16.2030255,70.4711252 L23.52675,60.925075 L23.4369957,60.7923278 C20.7181498,56.636825 19.1867635,51.7986396 19.0587391,46.7300561 L19.05,46.0375 C19.05,31.1327153 31.1327153,19.05 46.0375,19.05 Z M69.85,44.45 C87.3850408,44.45 101.6,58.6649592 101.6,76.2 C101.6,81.1699018 100.455989,85.9796885 98.2880414,90.3337512 C97.8972565,91.1185959 96.9442203,91.4380446 96.1593756,91.0472597 C95.3745308,90.6564748 95.0550822,89.7034386 95.4458671,88.9185939 C97.3961257,85.0017326 98.425,80.676019 98.425,76.2 C98.425,60.4184633 85.6315367,47.625 69.85,47.625 C54.0684633,47.625 41.275,60.4184633 41.275,76.2 C41.275,91.8061863 53.7857435,104.490332 69.3250689,104.770275 L69.85,104.775 L97.0454625,104.775 L92.3416202,97.7180866 C91.8900238,97.040692 92.0277378,96.1424522 92.6337953,95.6282017 L92.7819134,95.5166202 C93.459308,95.0650238 94.3575478,95.2027378 94.8717983,95.8087953 L94.9833798,95.9569134 L101.33338,105.481913 C102.003209,106.486657 101.349145,107.816231 100.19005,107.940578 L100.0125,107.95 L69.85,107.95 C52.3149592,107.95 38.1,93.7350408 38.1,76.2 C38.1,58.6649592 52.3149592,44.45 69.85,44.45 Z M17.4625,92.075 C18.339252,92.075 19.05,92.785748 19.05,93.6625 C19.05,94.4766269 18.4371612,95.1476176 17.647636,95.2393197 L17.4625,95.25 L11.1125,95.25 C10.235748,95.25 9.525,94.539252 9.525,93.6625 C9.525,92.8483731 10.1378388,92.1773824 10.927364,92.0856803 L11.1125,92.075 L17.4625,92.075 Z M23.8125,92.075 C24.6878477,92.075 25.4,92.7870777 25.4,93.6625 C25.4,94.5378477 24.6878477,95.25 23.8125,95.25 C22.9371523,95.25 22.225,94.5378477 22.225,93.6625 C22.225,92.7870777 22.9371523,92.075 23.8125,92.075 Z M30.1625,92.075 C31.0378477,92.075 31.75,92.7870777 31.75,93.6625 C31.75,94.5378477 31.0378477,95.25 30.1625,95.25 C29.2871523,95.25 28.575,94.5378477 28.575,93.6625 C28.575,92.7870777 29.2871523,92.075 30.1625,92.075 Z M109.5375,22.225 C110.414252,22.225 111.125,22.935748 111.125,23.8125 L111.125,23.8125 L111.125,36.5125 C111.125,37.389252 110.414252,38.1 109.5375,38.1 L109.5375,38.1 L104.775,38.1 L104.775,42.8625 C104.775,44.2153196 103.210497,44.9221762 102.199239,44.10587 L102.199239,44.10587 L102.064968,43.985032 L96.1786875,38.1 L77.7875,38.1 C76.9733731,38.1 76.3023824,37.4871612 76.2106803,36.697636 L76.2106803,36.697636 L76.2,36.5125 L76.2,23.8125 C76.2,22.935748 76.910748,22.225 77.7875,22.225 L77.7875,22.225 Z M107.95,25.4 L79.375,25.4 L79.375,34.925 L96.8375,34.925 C97.1883593,34.925 97.5272434,35.0411486 97.8027469,35.252153 L97.8027469,35.252153 L97.960032,35.389968 L101.6,39.0286875 L101.6,36.5125 C101.6,35.6983731 102.212839,35.0273824 103.002364,34.9356803 L103.002364,34.9356803 L103.1875,34.925 L107.95,34.925 L107.95,25.4 Z M84.1375,28.575 C85.0128477,28.575 85.725,29.2870777 85.725,30.1625 C85.725,31.0378477 85.0128477,31.75 84.1375,31.75 C83.2621523,31.75 82.55,31.0378477 82.55,30.1625 C82.55,29.2870777 83.2621523,28.575 84.1375,28.575 Z M90.4875,28.575 C91.3628477,28.575 92.075,29.2870777 92.075,30.1625 C92.075,31.0378477 91.3628477,31.75 90.4875,31.75 C89.6121523,31.75 88.9,31.0378477 88.9,30.1625 C88.9,29.2870777 89.6121523,28.575 90.4875,28.575 Z M96.8375,28.575 C97.7128477,28.575 98.425,29.2870777 98.425,30.1625 C98.425,31.0378477 97.7128477,31.75 96.8375,31.75 C95.9621523,31.75 95.25,31.0378477 95.25,30.1625 C95.25,29.2870777 95.9621523,28.575 96.8375,28.575 Z" id="🎨--Major-color" fill="#000091"/>
                </g>
            </g>
        </g>
    </g>
</svg>