<?xml version="1.0" encoding="UTF-8"?>
<svg width="282px" height="160px" viewBox="0 0 282 160" version="1.1" xmlns="http://www.w3.org/2000/svg" xmlns:xlink="http://www.w3.org/1999/xlink">
    <title>Fondamentaux</title>
    <g id="Page-1" stroke="none" stroke-width="1" fill="none" fill-rule="evenodd">
        <g id="PROJET_COMETE_DESKTOP_V_1.1" transform="translate(-120.000000, -1068.000000)">
            <g id="Fondamentaux" transform="translate(120.000000, 1068.000000)">
                <rect id="Background" fill="#F9F8F6" x="0" y="0" width="282" height="159"></rect>
                <path d="M163.027874,20.2836396 C180.245188,27.402683 192.361075,44.3627571 195.294395,62.0556738 C198.227716,79.7485906 191.850933,98.1743501 179.224902,111.260827 C166.598872,124.347304 147.723594,132.19919 128.338174,137.433781 C108.825218,142.773063 88.8021196,145.495051 73.4978404,139.946384 C58.1935612,134.397718 47.6081015,120.473707 38.425534,106.340312 C29.2429665,92.3116084 21.4632912,78.0735216 24.7792184,65.929271 C28.2226812,53.7850204 42.6342107,43.839298 57.1732759,36.4061791 C71.7123412,28.9730603 86.1238707,23.9478531 104.616541,20.074256 C123.109212,16.095967 145.683024,13.269288 163.027874,20.2836396 Z" id="Blob" fill="#F4F3EF"></path>
                <rect id="Trait" fill="#E4E2D8" x="25" y="159" width="234" height="1"></rect>
                <path d="M77,139 C78.1045695,139 79,139.895431 79,141 C79,142.104569 78.1045695,143 77,143 C75.8954305,143 75,142.104569 75,141 C75,139.895431 75.8954305,139 77,139 Z M89,139 C90.1045695,139 91,139.895431 91,141 C91,142.104569 90.1045695,143 89,143 C87.8954305,143 87,142.104569 87,141 C87,139.895431 87.8954305,139 89,139 Z M101,139 C102.104569,139 103,139.895431 103,141 C103,142.104569 102.104569,143 101,143 C99.8954305,143 99,142.104569 99,141 C99,139.895431 99.8954305,139 101,139 Z M113,139 C114.104569,139 115,139.895431 115,141 C115,142.104569 114.104569,143 113,143 C111.895431,143 111,142.104569 111,141 C111,139.895431 111.895431,139 113,139 Z M125,139 C126.104569,139 127,139.895431 127,141 C127,142.104569 126.104569,143 125,143 C123.895431,143 123,142.104569 123,141 C123,139.895431 123.895431,139 125,139 Z M137,139 C138.104569,139 139,139.895431 139,141 C139,142.104569 138.104569,143 137,143 C135.895431,143 135,142.104569 135,141 C135,139.895431 135.895431,139 137,139 Z M149,139 C150.104569,139 151,139.895431 151,141 C151,142.104569 150.104569,143 149,143 C147.895431,143 147,142.104569 147,141 C147,139.895431 147.895431,139 149,139 Z M161,139 C162.104569,139 163,139.895431 163,141 C163,142.104569 162.104569,143 161,143 C159.895431,143 159,142.104569 159,141 C159,139.895431 159.895431,139 161,139 Z M173,139 C174.104569,139 175,139.895431 175,141 C175,142.104569 174.104569,143 173,143 C171.895431,143 171,142.104569 171,141 C171,139.895431 171.895431,139 173,139 Z M185,139 C186.104569,139 187,139.895431 187,141 C187,142.104569 186.104569,143 185,143 C183.895431,143 183,142.104569 183,141 C183,139.895431 183.895431,139 185,139 Z M197,139 C198.104569,139 199,139.895431 199,141 C199,142.104569 198.104569,143 197,143 C195.895431,143 195,142.104569 195,141 C195,139.895431 195.895431,139 197,139 Z M209,139 C210.104569,139 211,139.895431 211,141 C211,142.104569 210.104569,143 209,143 C207.895431,143 207,142.104569 207,141 C207,139.895431 207.895431,139 209,139 Z M221,139 C222.104569,139 223,139.895431 223,141 C223,142.104569 222.104569,143 221,143 C219.895431,143 219,142.104569 219,141 C219,139.895431 219.895431,139 221,139 Z M233,139 C234.104569,139 235,139.895431 235,141 C235,142.104569 234.104569,143 233,143 C231.895431,143 231,142.104569 231,141 C231,139.895431 231.895431,139 233,139 Z M245,139 C246.104569,139 247,139.895431 247,141 C247,142.104569 246.104569,143 245,143 C243.895431,143 243,142.104569 243,141 C243,139.895431 243.895431,139 245,139 Z M257,139 C258.104569,139 259,139.895431 259,141 C259,142.104569 258.104569,143 257,143 C255.895431,143 255,142.104569 255,141 C255,139.895431 255.895431,139 257,139 Z M173,127 C174.104569,127 175,127.895431 175,129 C175,130.104569 174.104569,131 173,131 C171.895431,131 171,130.104569 171,129 C171,127.895431 171.895431,127 173,127 Z M185,127 C186.104569,127 187,127.895431 187,129 C187,130.104569 186.104569,131 185,131 C183.895431,131 183,130.104569 183,129 C183,127.895431 183.895431,127 185,127 Z M197,127 C198.104569,127 199,127.895431 199,129 C199,130.104569 198.104569,131 197,131 C195.895431,131 195,130.104569 195,129 C195,127.895431 195.895431,127 197,127 Z M209,127 C210.104569,127 211,127.895431 211,129 C211,130.104569 210.104569,131 209,131 C207.895431,131 207,130.104569 207,129 C207,127.895431 207.895431,127 209,127 Z M77,127 C78.1045695,127 79,127.895431 79,129 C79,130.104569 78.1045695,131 77,131 C75.8954305,131 75,130.104569 75,129 C75,127.895431 75.8954305,127 77,127 Z M101,127 C102.104569,127 103,127.895431 103,129 C103,130.104569 102.104569,131 101,131 C99.8954305,131 99,130.104569 99,129 C99,127.895431 99.8954305,127 101,127 Z M125,127 C126.104569,127 127,127.895431 127,129 C127,130.104569 126.104569,131 125,131 C123.895431,131 123,130.104569 123,129 C123,127.895431 123.895431,127 125,127 Z M149,127 C150.104569,127 151,127.895431 151,129 C151,130.104569 150.104569,131 149,131 C147.895431,131 147,130.104569 147,129 C147,127.895431 147.895431,127 149,127 Z M161,127 C162.104569,127 163,127.895431 163,129 C163,130.104569 162.104569,131 161,131 C159.895431,131 159,130.104569 159,129 C159,127.895431 159.895431,127 161,127 Z M233,127 C234.104569,127 235,127.895431 235,129 C235,130.104569 234.104569,131 233,131 C231.895431,131 231,130.104569 231,129 C231,127.895431 231.895431,127 233,127 Z M89,127 C90.1045695,127 91,127.895431 91,129 C91,130.104569 90.1045695,131 89,131 C87.8954305,131 87,130.104569 87,129 C87,127.895431 87.8954305,127 89,127 Z M245,127 C246.104569,127 247,127.895431 247,129 C247,130.104569 246.104569,131 245,131 C243.895431,131 243,130.104569 243,129 C243,127.895431 243.895431,127 245,127 Z M113,127 C114.104569,127 115,127.895431 115,129 C115,130.104569 114.104569,131 113,131 C111.895431,131 111,130.104569 111,129 C111,127.895431 111.895431,127 113,127 Z M257,127 C258.104569,127 259,127.895431 259,129 C259,130.104569 258.104569,131 257,131 C255.895431,131 255,130.104569 255,129 C255,127.895431 255.895431,127 257,127 Z M137,127 C138.104569,127 139,127.895431 139,129 C139,130.104569 138.104569,131 137,131 C135.895431,131 135,130.104569 135,129 C135,127.895431 135.895431,127 137,127 Z M221,127 C222.104569,127 223,127.895431 223,129 C223,130.104569 222.104569,131 221,131 C219.895431,131 219,130.104569 219,129 C219,127.895431 219.895431,127 221,127 Z M101,115 C102.104569,115 103,115.895431 103,117 C103,118.104569 102.104569,119 101,119 C99.8954305,119 99,118.104569 99,117 C99,115.895431 99.8954305,115 101,115 Z M125,115 C126.104569,115 127,115.895431 127,117 C127,118.104569 126.104569,119 125,119 C123.895431,119 123,118.104569 123,117 C123,115.895431 123.895431,115 125,115 Z M137,115 C138.104569,115 139,115.895431 139,117 C139,118.104569 138.104569,119 137,119 C135.895431,119 135,118.104569 135,117 C135,115.895431 135.895431,115 137,115 Z M149,115 C150.104569,115 151,115.895431 151,117 C151,118.104569 150.104569,119 149,119 C147.895431,119 147,118.104569 147,117 C147,115.895431 147.895431,115 149,115 Z M161,115 C162.104569,115 163,115.895431 163,117 C163,118.104569 162.104569,119 161,119 C159.895431,119 159,118.104569 159,117 C159,115.895431 159.895431,115 161,115 Z M77,115 C78.1045695,115 79,115.895431 79,117 C79,118.104569 78.1045695,119 77,119 C75.8954305,119 75,118.104569 75,117 C75,115.895431 75.8954305,115 77,115 Z M89,115 C90.1045695,115 91,115.895431 91,117 C91,118.104569 90.1045695,119 89,119 C87.8954305,119 87,118.104569 87,117 C87,115.895431 87.8954305,115 89,115 Z M113,115 C114.104569,115 115,115.895431 115,117 C115,118.104569 114.104569,119 113,119 C111.895431,119 111,118.104569 111,117 C111,115.895431 111.895431,115 113,115 Z M173,115 C174.104569,115 175,115.895431 175,117 C175,118.104569 174.104569,119 173,119 C171.895431,119 171,118.104569 171,117 C171,115.895431 171.895431,115 173,115 Z M185,115 C186.104569,115 187,115.895431 187,117 C187,118.104569 186.104569,119 185,119 C183.895431,119 183,118.104569 183,117 C183,115.895431 183.895431,115 185,115 Z M197,115 C198.104569,115 199,115.895431 199,117 C199,118.104569 198.104569,119 197,119 C195.895431,119 195,118.104569 195,117 C195,115.895431 195.895431,115 197,115 Z M209,115 C210.104569,115 211,115.895431 211,117 C211,118.104569 210.104569,119 209,119 C207.895431,119 207,118.104569 207,117 C207,115.895431 207.895431,115 209,115 Z M221,115 C222.104569,115 223,115.895431 223,117 C223,118.104569 222.104569,119 221,119 C219.895431,119 219,118.104569 219,117 C219,115.895431 219.895431,115 221,115 Z M233,115 C234.104569,115 235,115.895431 235,117 C235,118.104569 234.104569,119 233,119 C231.895431,119 231,118.104569 231,117 C231,115.895431 231.895431,115 233,115 Z M245,115 C246.104569,115 247,115.895431 247,117 C247,118.104569 246.104569,119 245,119 C243.895431,119 243,118.104569 243,117 C243,115.895431 243.895431,115 245,115 Z M257,115 C258.104569,115 259,115.895431 259,117 C259,118.104569 258.104569,119 257,119 C255.895431,119 255,118.104569 255,117 C255,115.895431 255.895431,115 257,115 Z M77,103 C78.1045695,103 79,103.895431 79,105 C79,106.104569 78.1045695,107 77,107 C75.8954305,107 75,106.104569 75,105 C75,103.895431 75.8954305,103 77,103 Z M89,103 C90.1045695,103 91,103.895431 91,105 C91,106.104569 90.1045695,107 89,107 C87.8954305,107 87,106.104569 87,105 C87,103.895431 87.8954305,103 89,103 Z M101,103 C102.104569,103 103,103.895431 103,105 C103,106.104569 102.104569,107 101,107 C99.8954305,107 99,106.104569 99,105 C99,103.895431 99.8954305,103 101,103 Z M113,103 C114.104569,103 115,103.895431 115,105 C115,106.104569 114.104569,107 113,107 C111.895431,107 111,106.104569 111,105 C111,103.895431 111.895431,103 113,103 Z M125,103 C126.104569,103 127,103.895431 127,105 C127,106.104569 126.104569,107 125,107 C123.895431,107 123,106.104569 123,105 C123,103.895431 123.895431,103 125,103 Z M137,103 C138.104569,103 139,103.895431 139,105 C139,106.104569 138.104569,107 137,107 C135.895431,107 135,106.104569 135,105 C135,103.895431 135.895431,103 137,103 Z M149,103 C150.104569,103 151,103.895431 151,105 C151,106.104569 150.104569,107 149,107 C147.895431,107 147,106.104569 147,105 C147,103.895431 147.895431,103 149,103 Z M161,103 C162.104569,103 163,103.895431 163,105 C163,106.104569 162.104569,107 161,107 C159.895431,107 159,106.104569 159,105 C159,103.895431 159.895431,103 161,103 Z M173,103 C174.104569,103 175,103.895431 175,105 C175,106.104569 174.104569,107 173,107 C171.895431,107 171,106.104569 171,105 C171,103.895431 171.895431,103 173,103 Z M185,103 C186.104569,103 187,103.895431 187,105 C187,106.104569 186.104569,107 185,107 C183.895431,107 183,106.104569 183,105 C183,103.895431 183.895431,103 185,103 Z M197,103 C198.104569,103 199,103.895431 199,105 C199,106.104569 198.104569,107 197,107 C195.895431,107 195,106.104569 195,105 C195,103.895431 195.895431,103 197,103 Z M209,103 C210.104569,103 211,103.895431 211,105 C211,106.104569 210.104569,107 209,107 C207.895431,107 207,106.104569 207,105 C207,103.895431 207.895431,103 209,103 Z M221,103 C222.104569,103 223,103.895431 223,105 C223,106.104569 222.104569,107 221,107 C219.895431,107 219,106.104569 219,105 C219,103.895431 219.895431,103 221,103 Z M233,103 C234.104569,103 235,103.895431 235,105 C235,106.104569 234.104569,107 233,107 C231.895431,107 231,106.104569 231,105 C231,103.895431 231.895431,103 233,103 Z M245,103 C246.104569,103 247,103.895431 247,105 C247,106.104569 246.104569,107 245,107 C243.895431,107 243,106.104569 243,105 C243,103.895431 243.895431,103 245,103 Z M257,103 C258.104569,103 259,103.895431 259,105 C259,106.104569 258.104569,107 257,107 C255.895431,107 255,106.104569 255,105 C255,103.895431 255.895431,103 257,103 Z M77,91 C78.1045695,91 79,91.8954305 79,93 C79,94.1045695 78.1045695,95 77,95 C75.8954305,95 75,94.1045695 75,93 C75,91.8954305 75.8954305,91 77,91 Z M89,91 C90.1045695,91 91,91.8954305 91,93 C91,94.1045695 90.1045695,95 89,95 C87.8954305,95 87,94.1045695 87,93 C87,91.8954305 87.8954305,91 89,91 Z M101,91 C102.104569,91 103,91.8954305 103,93 C103,94.1045695 102.104569,95 101,95 C99.8954305,95 99,94.1045695 99,93 C99,91.8954305 99.8954305,91 101,91 Z M113,91 C114.104569,91 115,91.8954305 115,93 C115,94.1045695 114.104569,95 113,95 C111.895431,95 111,94.1045695 111,93 C111,91.8954305 111.895431,91 113,91 Z M125,91 C126.104569,91 127,91.8954305 127,93 C127,94.1045695 126.104569,95 125,95 C123.895431,95 123,94.1045695 123,93 C123,91.8954305 123.895431,91 125,91 Z M137,91 C138.104569,91 139,91.8954305 139,93 C139,94.1045695 138.104569,95 137,95 C135.895431,95 135,94.1045695 135,93 C135,91.8954305 135.895431,91 137,91 Z M149,91 C150.104569,91 151,91.8954305 151,93 C151,94.1045695 150.104569,95 149,95 C147.895431,95 147,94.1045695 147,93 C147,91.8954305 147.895431,91 149,91 Z M161,91 C162.104569,91 163,91.8954305 163,93 C163,94.1045695 162.104569,95 161,95 C159.895431,95 159,94.1045695 159,93 C159,91.8954305 159.895431,91 161,91 Z M173,91 C174.104569,91 175,91.8954305 175,93 C175,94.1045695 174.104569,95 173,95 C171.895431,95 171,94.1045695 171,93 C171,91.8954305 171.895431,91 173,91 Z M185,91 C186.104569,91 187,91.8954305 187,93 C187,94.1045695 186.104569,95 185,95 C183.895431,95 183,94.1045695 183,93 C183,91.8954305 183.895431,91 185,91 Z M197,91 C198.104569,91 199,91.8954305 199,93 C199,94.1045695 198.104569,95 197,95 C195.895431,95 195,94.1045695 195,93 C195,91.8954305 195.895431,91 197,91 Z M209,91 C210.104569,91 211,91.8954305 211,93 C211,94.1045695 210.104569,95 209,95 C207.895431,95 207,94.1045695 207,93 C207,91.8954305 207.895431,91 209,91 Z M221,91 C222.104569,91 223,91.8954305 223,93 C223,94.1045695 222.104569,95 221,95 C219.895431,95 219,94.1045695 219,93 C219,91.8954305 219.895431,91 221,91 Z M233,91 C234.104569,91 235,91.8954305 235,93 C235,94.1045695 234.104569,95 233,95 C231.895431,95 231,94.1045695 231,93 C231,91.8954305 231.895431,91 233,91 Z M245,91 C246.104569,91 247,91.8954305 247,93 C247,94.1045695 246.104569,95 245,95 C243.895431,95 243,94.1045695 243,93 C243,91.8954305 243.895431,91 245,91 Z M257,91 C258.104569,91 259,91.8954305 259,93 C259,94.1045695 258.104569,95 257,95 C255.895431,95 255,94.1045695 255,93 C255,91.8954305 255.895431,91 257,91 Z M77,79 C78.1045695,79 79,79.8954305 79,81 C79,82.1045695 78.1045695,83 77,83 C75.8954305,83 75,82.1045695 75,81 C75,79.8954305 75.8954305,79 77,79 Z M89,79 C90.1045695,79 91,79.8954305 91,81 C91,82.1045695 90.1045695,83 89,83 C87.8954305,83 87,82.1045695 87,81 C87,79.8954305 87.8954305,79 89,79 Z M101,79 C102.104569,79 103,79.8954305 103,81 C103,82.1045695 102.104569,83 101,83 C99.8954305,83 99,82.1045695 99,81 C99,79.8954305 99.8954305,79 101,79 Z M113,79 C114.104569,79 115,79.8954305 115,81 C115,82.1045695 114.104569,83 113,83 C111.895431,83 111,82.1045695 111,81 C111,79.8954305 111.895431,79 113,79 Z M125,79 C126.104569,79 127,79.8954305 127,81 C127,82.1045695 126.104569,83 125,83 C123.895431,83 123,82.1045695 123,81 C123,79.8954305 123.895431,79 125,79 Z M137,79 C138.104569,79 139,79.8954305 139,81 C139,82.1045695 138.104569,83 137,83 C135.895431,83 135,82.1045695 135,81 C135,79.8954305 135.895431,79 137,79 Z M149,79 C150.104569,79 151,79.8954305 151,81 C151,82.1045695 150.104569,83 149,83 C147.895431,83 147,82.1045695 147,81 C147,79.8954305 147.895431,79 149,79 Z M161,79 C162.104569,79 163,79.8954305 163,81 C163,82.1045695 162.104569,83 161,83 C159.895431,83 159,82.1045695 159,81 C159,79.8954305 159.895431,79 161,79 Z M173,79 C174.104569,79 175,79.8954305 175,81 C175,82.1045695 174.104569,83 173,83 C171.895431,83 171,82.1045695 171,81 C171,79.8954305 171.895431,79 173,79 Z M185,79 C186.104569,79 187,79.8954305 187,81 C187,82.1045695 186.104569,83 185,83 C183.895431,83 183,82.1045695 183,81 C183,79.8954305 183.895431,79 185,79 Z M197,79 C198.104569,79 199,79.8954305 199,81 C199,82.1045695 198.104569,83 197,83 C195.895431,83 195,82.1045695 195,81 C195,79.8954305 195.895431,79 197,79 Z M209,79 C210.104569,79 211,79.8954305 211,81 C211,82.1045695 210.104569,83 209,83 C207.895431,83 207,82.1045695 207,81 C207,79.8954305 207.895431,79 209,79 Z M221,79 C222.104569,79 223,79.8954305 223,81 C223,82.1045695 222.104569,83 221,83 C219.895431,83 219,82.1045695 219,81 C219,79.8954305 219.895431,79 221,79 Z M233,79 C234.104569,79 235,79.8954305 235,81 C235,82.1045695 234.104569,83 233,83 C231.895431,83 231,82.1045695 231,81 C231,79.8954305 231.895431,79 233,79 Z M245,79 C246.104569,79 247,79.8954305 247,81 C247,82.1045695 246.104569,83 245,83 C243.895431,83 243,82.1045695 243,81 C243,79.8954305 243.895431,79 245,79 Z M257,79 C258.104569,79 259,79.8954305 259,81 C259,82.1045695 258.104569,83 257,83 C255.895431,83 255,82.1045695 255,81 C255,79.8954305 255.895431,79 257,79 Z M77,67 C78.1045695,67 79,67.8954305 79,69 C79,70.1045695 78.1045695,71 77,71 C75.8954305,71 75,70.1045695 75,69 C75,67.8954305 75.8954305,67 77,67 Z M89,67 C90.1045695,67 91,67.8954305 91,69 C91,70.1045695 90.1045695,71 89,71 C87.8954305,71 87,70.1045695 87,69 C87,67.8954305 87.8954305,67 89,67 Z M101,67 C102.104569,67 103,67.8954305 103,69 C103,70.1045695 102.104569,71 101,71 C99.8954305,71 99,70.1045695 99,69 C99,67.8954305 99.8954305,67 101,67 Z M113,67 C114.104569,67 115,67.8954305 115,69 C115,70.1045695 114.104569,71 113,71 C111.895431,71 111,70.1045695 111,69 C111,67.8954305 111.895431,67 113,67 Z M125,67 C126.104569,67 127,67.8954305 127,69 C127,70.1045695 126.104569,71 125,71 C123.895431,71 123,70.1045695 123,69 C123,67.8954305 123.895431,67 125,67 Z M137,67 C138.104569,67 139,67.8954305 139,69 C139,70.1045695 138.104569,71 137,71 C135.895431,71 135,70.1045695 135,69 C135,67.8954305 135.895431,67 137,67 Z M149,67 C150.104569,67 151,67.8954305 151,69 C151,70.1045695 150.104569,71 149,71 C147.895431,71 147,70.1045695 147,69 C147,67.8954305 147.895431,67 149,67 Z M161,67 C162.104569,67 163,67.8954305 163,69 C163,70.1045695 162.104569,71 161,71 C159.895431,71 159,70.1045695 159,69 C159,67.8954305 159.895431,67 161,67 Z M173,67 C174.104569,67 175,67.8954305 175,69 C175,70.1045695 174.104569,71 173,71 C171.895431,71 171,70.1045695 171,69 C171,67.8954305 171.895431,67 173,67 Z M185,67 C186.104569,67 187,67.8954305 187,69 C187,70.1045695 186.104569,71 185,71 C183.895431,71 183,70.1045695 183,69 C183,67.8954305 183.895431,67 185,67 Z M197,67 C198.104569,67 199,67.8954305 199,69 C199,70.1045695 198.104569,71 197,71 C195.895431,71 195,70.1045695 195,69 C195,67.8954305 195.895431,67 197,67 Z M209,67 C210.104569,67 211,67.8954305 211,69 C211,70.1045695 210.104569,71 209,71 C207.895431,71 207,70.1045695 207,69 C207,67.8954305 207.895431,67 209,67 Z M221,67 C222.104569,67 223,67.8954305 223,69 C223,70.1045695 222.104569,71 221,71 C219.895431,71 219,70.1045695 219,69 C219,67.8954305 219.895431,67 221,67 Z M233,67 C234.104569,67 235,67.8954305 235,69 C235,70.1045695 234.104569,71 233,71 C231.895431,71 231,70.1045695 231,69 C231,67.8954305 231.895431,67 233,67 Z M245,67 C246.104569,67 247,67.8954305 247,69 C247,70.1045695 246.104569,71 245,71 C243.895431,71 243,70.1045695 243,69 C243,67.8954305 243.895431,67 245,67 Z M257,67 C258.104569,67 259,67.8954305 259,69 C259,70.1045695 258.104569,71 257,71 C255.895431,71 255,70.1045695 255,69 C255,67.8954305 255.895431,67 257,67 Z M77,55 C78.1045695,55 79,55.8954305 79,57 C79,58.1045695 78.1045695,59 77,59 C75.8954305,59 75,58.1045695 75,57 C75,55.8954305 75.8954305,55 77,55 Z M89,55 C90.1045695,55 91,55.8954305 91,57 C91,58.1045695 90.1045695,59 89,59 C87.8954305,59 87,58.1045695 87,57 C87,55.8954305 87.8954305,55 89,55 Z M101,55 C102.104569,55 103,55.8954305 103,57 C103,58.1045695 102.104569,59 101,59 C99.8954305,59 99,58.1045695 99,57 C99,55.8954305 99.8954305,55 101,55 Z M113,55 C114.104569,55 115,55.8954305 115,57 C115,58.1045695 114.104569,59 113,59 C111.895431,59 111,58.1045695 111,57 C111,55.8954305 111.895431,55 113,55 Z M125,55 C126.104569,55 127,55.8954305 127,57 C127,58.1045695 126.104569,59 125,59 C123.895431,59 123,58.1045695 123,57 C123,55.8954305 123.895431,55 125,55 Z M137,55 C138.104569,55 139,55.8954305 139,57 C139,58.1045695 138.104569,59 137,59 C135.895431,59 135,58.1045695 135,57 C135,55.8954305 135.895431,55 137,55 Z M149,55 C150.104569,55 151,55.8954305 151,57 C151,58.1045695 150.104569,59 149,59 C147.895431,59 147,58.1045695 147,57 C147,55.8954305 147.895431,55 149,55 Z M161,55 C162.104569,55 163,55.8954305 163,57 C163,58.1045695 162.104569,59 161,59 C159.895431,59 159,58.1045695 159,57 C159,55.8954305 159.895431,55 161,55 Z M173,55 C174.104569,55 175,55.8954305 175,57 C175,58.1045695 174.104569,59 173,59 C171.895431,59 171,58.1045695 171,57 C171,55.8954305 171.895431,55 173,55 Z M185,55 C186.104569,55 187,55.8954305 187,57 C187,58.1045695 186.104569,59 185,59 C183.895431,59 183,58.1045695 183,57 C183,55.8954305 183.895431,55 185,55 Z M197,55 C198.104569,55 199,55.8954305 199,57 C199,58.1045695 198.104569,59 197,59 C195.895431,59 195,58.1045695 195,57 C195,55.8954305 195.895431,55 197,55 Z M209,55 C210.104569,55 211,55.8954305 211,57 C211,58.1045695 210.104569,59 209,59 C207.895431,59 207,58.1045695 207,57 C207,55.8954305 207.895431,55 209,55 Z M221,55 C222.104569,55 223,55.8954305 223,57 C223,58.1045695 222.104569,59 221,59 C219.895431,59 219,58.1045695 219,57 C219,55.8954305 219.895431,55 221,55 Z M233,55 C234.104569,55 235,55.8954305 235,57 C235,58.1045695 234.104569,59 233,59 C231.895431,59 231,58.1045695 231,57 C231,55.8954305 231.895431,55 233,55 Z M245,55 C246.104569,55 247,55.8954305 247,57 C247,58.1045695 246.104569,59 245,59 C243.895431,59 243,58.1045695 243,57 C243,55.8954305 243.895431,55 245,55 Z M257,55 C258.104569,55 259,55.8954305 259,57 C259,58.1045695 258.104569,59 257,59 C255.895431,59 255,58.1045695 255,57 C255,55.8954305 255.895431,55 257,55 Z" id="Trame" fill="#F4F3EF"></path>
                <g id="Icone" transform="translate(78.000000, 16.000000)">
                    <path d="M93.6625,117.475 C94.5378477,117.475 95.25,118.187078 95.25,119.0625 C95.25,119.937848 94.5378477,120.65 93.6625,120.65 C92.7871523,120.65 92.075,119.937848 92.075,119.0625 C92.075,118.187078 92.7871523,117.475 93.6625,117.475 Z M14.2875,22.225 C15.1628477,22.225 15.875,22.9370777 15.875,23.8125 C15.875,24.6878477 15.1628477,25.4 14.2875,25.4 C13.4121523,25.4 12.7,24.6878477 12.7,23.8125 C12.7,22.9370777 13.4121523,22.225 14.2875,22.225 Z M106.3625,15.875 C107.237848,15.875 107.95,16.5870777 107.95,17.4625 C107.95,18.3378477 107.237848,19.05 106.3625,19.05 C105.487152,19.05 104.775,18.3378477 104.775,17.4625 C104.775,16.5870777 105.487152,15.875 106.3625,15.875 Z" id="🎨--Accent-color" fill="#BFBFE3"></path>
                    <path d="M52.3875,104.775 C53.2628477,104.775 53.975,105.487078 53.975,106.3625 C53.975,107.237848 53.2628477,107.95 52.3875,107.95 C51.5121523,107.95 50.8,107.237848 50.8,106.3625 C50.8,105.487078 51.5121523,104.775 52.3875,104.775 Z M87.3125,107.95 C86.4983731,107.95 85.8273824,107.337161 85.7356803,106.547636 L85.725,106.3625 L85.725,100.0125 C85.725,99.135748 86.435748,98.425 87.3125,98.425 C88.1266269,98.425 88.7976176,99.0378388 88.8893197,99.827364 L88.9,100.0125 L88.8992062,104.773705 L101.599652,104.774652 L101.6,100.0125 C101.6,99.135748 102.310748,98.425 103.1875,98.425 C104.001627,98.425 104.672618,99.0378388 104.76432,99.827364 L104.775,100.0125 L104.774652,104.774652 L106.3625,104.775 C107.176627,104.775 107.847618,104.162161 107.93932,103.372636 L107.95,103.1875 L107.95,90.4875 C107.95,87.9511816 105.96734,85.8779384 103.467333,85.7330847 L103.1875,85.725 L99.082564,85.725 C97.2240425,85.725 95.4416412,84.9867052 94.127468,83.672532 C92.7253346,82.2703986 92.3379591,80.1465431 93.1547915,78.33965 L93.5491468,77.445722 C93.6117296,77.3000722 93.6727419,77.1560842 93.7321851,77.0137473 L94.0700275,76.1794506 C96.7286746,69.3906299 95.4721606,66.675 90.4875,66.675 C85.5028394,66.675 84.2463254,69.3906299 86.904981,76.1794693 L87.2428245,77.0137683 C87.3022678,77.1561057 87.3632803,77.3000941 87.4258632,77.4457443 L87.8202198,78.339675 C88.6370409,80.1465431 88.2496654,82.2703986 86.847532,83.672532 C85.6209704,84.8990936 83.98653,85.6240012 82.2630092,85.7152042 L81.892436,85.725 L77.7875,85.725 C75.7138374,85.725 73.9497172,87.0503085 73.2959573,88.9001076 L103.1875,88.9 C104.064252,88.9 104.775,89.610748 104.775,90.4875 C104.775,91.3016269 104.162161,91.9726176 103.372636,92.0643197 L103.1875,92.075 L73.0246522,92.0746522 L73.025,106.3625 C73.025,107.176627 72.4121612,107.847618 71.622636,107.93932 L71.4375,107.95 L61.9125,107.95 C61.035748,107.95 60.325,107.239252 60.325,106.3625 C60.325,105.548373 60.9378388,104.877382 61.727364,104.78568 L61.9125,104.775 L69.8492062,104.773705 L69.85,90.4875 C69.85,86.2191019 73.2191619,82.7376137 77.4431877,82.5573335 L77.7875,82.55 L81.892436,82.55 C82.9088951,82.55 83.8837228,82.1462132 84.602468,81.427468 C85.0704447,80.9594913 85.1997371,80.2506224 84.9271198,79.647573 C80.3326922,69.4848288 82.1031802,63.5 90.4875,63.5 C98.8718198,63.5 100.642308,69.4848288 96.0478915,79.6475481 C95.7752629,80.2506224 95.9045553,80.9594913 96.372532,81.427468 C97.0194027,82.0743386 97.8737001,82.466093 98.7790897,82.5379752 L99.082564,82.55 L103.1875,82.55 C107.455898,82.55 110.937386,85.9191619 111.117667,90.1431877 L111.125,90.4875 L111.125,103.1875 C111.125,105.723818 109.14234,107.797062 106.642333,107.941915 L106.3625,107.95 L87.3125,107.95 Z M80.9625,98.425 C81.7766269,98.425 82.4476176,99.0378388 82.5393197,99.827364 L82.55,100.0125 L82.55,106.3625 C82.55,107.239252 81.839252,107.95 80.9625,107.95 C80.1483731,107.95 79.4773824,107.337161 79.3856803,106.547636 L79.375,106.3625 L79.375,100.0125 C79.375,99.135748 80.085748,98.425 80.9625,98.425 Z M115.887876,57.15 C119.883356,57.15 122.558692,59.8253355 123.777977,64.7024747 C123.99062,65.5530491 123.473475,66.4149576 122.622901,66.6276012 C121.772326,66.8402448 120.910418,66.3230997 120.697774,65.4725253 C119.800392,61.8829979 118.242395,60.325 115.887876,60.325 C115.011123,60.325 114.300376,59.614252 114.300376,58.7375 C114.300376,57.860748 115.011123,57.15 115.887876,57.15 Z M46.7474516,25.5675968 C49.4579426,26.9228423 50.8,29.6069572 50.8,33.3375 C50.8,34.214252 50.089252,34.925 49.2125,34.925 C48.335748,34.925 47.625,34.214252 47.625,33.3375 C47.625,30.855909 46.9297828,29.3348646 45.5617754,28.5342155 L45.3275484,28.4074032 C44.5433576,28.0153077 44.2255014,27.0617393 44.6175968,26.2775484 C45.0096923,25.4933576 45.9632607,25.1755014 46.7474516,25.5675968 Z M66.5074032,16.7525484 C66.8714918,17.4807256 66.6234283,18.3549478 65.9582659,18.7900551 L65.7974516,18.8824032 C64.2746092,19.6438243 63.5,21.1930428 63.5,23.8125 C63.5,24.689252 62.789252,25.4 61.9125,25.4 C61.035748,25.4 60.325,24.689252 60.325,23.8125 C60.325,20.0819572 61.6670574,17.3978423 64.3775484,16.0425968 C65.1617393,15.6505014 66.1153077,15.9683576 66.5074032,16.7525484 Z" id="🎨-Minor-color" fill="#E1000F"></path>
                    <path d="M23.8125,85.725 C24.6266269,85.725 25.2976176,86.3378388 25.3893197,87.127364 L25.4,87.3125 L25.4,96.8375 C25.4,101.105898 28.7691619,104.587386 32.9931877,104.767667 L33.3375,104.775 L36.5125,104.775 C37.389252,104.775 38.1,105.485748 38.1,106.3625 C38.1,107.176627 37.4871612,107.847618 36.697636,107.93932 L36.5125,107.95 L33.3375,107.95 C27.3280954,107.95 22.4328058,103.179906 22.2314437,97.2195315 L22.225,96.8375 L22.225,87.3125 C22.225,86.435748 22.935748,85.725 23.8125,85.725 Z M61.9125,88.9 C62.7266269,88.9 63.3976176,89.5128388 63.4893197,90.302364 L63.5,90.4875 L63.5,96.8375 C63.5,97.714252 62.789252,98.425 61.9125,98.425 C61.0983731,98.425 60.4273824,97.8121612 60.3356803,97.022636 L60.325,96.8375 L60.325,90.4875 C60.325,89.610748 61.035748,88.9 61.9125,88.9 Z M52.3875,88.9 C53.2016269,88.9 53.8726176,89.5128388 53.9643197,90.302364 L53.975,90.4875 L53.975,96.8375 C53.975,97.714252 53.264252,98.425 52.3875,98.425 C51.5733731,98.425 50.9023824,97.8121612 50.8106803,97.022636 L50.8,96.8375 L50.8,90.4875 C50.8,89.610748 51.510748,88.9 52.3875,88.9 Z M42.8625,88.9 C43.6766269,88.9 44.3476176,89.5128388 44.4393197,90.302364 L44.45,90.4875 L44.45,96.8375 C44.45,97.714252 43.739252,98.425 42.8625,98.425 C42.0483731,98.425 41.3773824,97.8121612 41.2856803,97.022636 L41.275,96.8375 L41.275,90.4875 C41.275,89.610748 41.985748,88.9 42.8625,88.9 Z M33.3375,88.9 C34.1516269,88.9 34.8226176,89.5128388 34.9143197,90.302364 L34.925,90.4875 L34.925,96.8375 C34.925,97.714252 34.214252,98.425 33.3375,98.425 C32.5233731,98.425 31.8523824,97.8121612 31.7606803,97.022636 L31.75,96.8375 L31.75,90.4875 C31.75,89.610748 32.460748,88.9 33.3375,88.9 Z M91.0525973,15.6032361 L91.1877256,15.7239836 L97.5377256,22.0739836 C98.073643,22.609901 98.1507157,23.4414143 97.7459798,24.0622748 L97.6347449,24.2128084 L83.4164939,41.2740091 L96.8375,41.275 C97.6516269,41.275 98.3226176,41.8878388 98.4143197,42.677364 L98.425,42.8625 L98.425,49.2125 C98.425,50.0266269 97.8121612,50.6976176 97.022636,50.7893197 L96.8375,50.8 L92.0744939,50.7990091 L92.075,55.5625 C92.075,56.439252 91.364252,57.15 90.4875,57.15 C89.6733731,57.15 89.0023824,56.5371612 88.9106803,55.747636 L88.9,55.5625 L88.8994939,50.7990091 L25.3994939,50.7990091 L25.4,71.4375 C25.4,72.314252 24.689252,73.025 23.8125,73.025 C22.9983731,73.025 22.3273824,72.4121612 22.2356803,71.622636 L22.225,71.4375 L22.2244939,54.9990091 L22.1111628,55.1336847 C21.9632431,55.3092784 21.8172523,55.4839449 21.6731871,55.6576848 L20.8318781,56.6890102 C13.1948511,66.2110328 11.5764188,72.8313548 15.410032,76.664968 C17.6321525,78.8870885 21.7607474,79.0062807 27.7534835,76.917204 L28.6901445,76.5783711 C29.0072634,76.4596099 29.329279,76.3350271 29.6561856,76.2046085 L30.6515727,75.795831 C31.156597,75.5826742 31.6726132,75.3563549 32.199602,75.1168251 L33.2682041,74.6201372 L34.3660322,74.088136 L35.4930521,73.5207363 C35.6833195,73.4232151 35.8748018,73.3242153 36.0674983,73.2237353 L37.2382417,72.603078 C37.435792,72.4966698 37.6345552,72.3887778 37.8345303,72.2794002 L39.0489201,71.6052934 L40.2923647,70.8954471 C40.5020247,70.7741564 40.712894,70.6513729 40.9249718,70.527095 L42.2119343,69.7634796 L43.5278659,68.9639117 L44.8727324,68.1283058 L46.2464996,67.2565769 L47.6491331,66.3486397 C47.8141916,66.2407711 47.9798368,66.132164 48.1460686,66.0228176 C47.8107358,65.249398 47.625,64.3963894 47.625,63.5 C47.625,62.623248 48.335748,61.9125 49.2125,61.9125 C50.089252,61.9125 50.8,62.623248 50.8,63.5 C50.8,65.2535041 52.2214959,66.675 53.975,66.675 C55.7285041,66.675 57.15,65.2535041 57.15,63.5 C57.15,61.8262007 55.854794,60.4549129 54.211954,60.3337086 L53.975,60.325 C53.098248,60.325 52.3875,59.614252 52.3875,58.7375 C52.3875,57.860748 53.098248,57.15 53.975,57.15 C57.4820082,57.15 60.325,59.9929918 60.325,63.5 C60.325,67.0070082 57.4820082,69.85 53.975,69.85 C52.5182357,69.85 51.1760449,69.359453 50.1046018,68.5345334 L48.7028203,69.4510926 L47.321266,70.3377709 L45.9648001,71.1913791 L44.6333955,72.0118498 L43.3270252,72.7991153 L42.0456619,73.5531084 C41.8341838,73.6759974 41.6237465,73.7974973 41.4143495,73.9176066 L40.1704461,74.6215644 C39.9652079,74.7361058 39.7610088,74.8492538 39.5578484,74.961007 L38.3513438,75.6147777 C38.1523353,75.7209462 37.9543643,75.8257171 37.7574302,75.9290889 L36.5882635,76.5325208 L35.4439547,77.102309 L34.3244769,77.6383863 C33.5864293,77.9845191 32.8649175,78.3081329 32.1599054,78.6091378 L31.1147576,79.0436771 L30.0943322,79.4442356 C22.1977586,82.4486756 16.5741844,82.3192485 13.164968,78.910032 C8.15441845,73.8994825 9.54222452,66.4505711 16.8454135,56.6613263 L17.6219972,55.6403014 C18.2867017,54.782497 18.9952434,53.9073253 19.7473128,53.014849 L20.6706696,51.9355753 L21.6356942,50.8397133 L21.6714939,50.7990091 L17.4625,50.8 C16.6483731,50.8 15.9773824,50.1871612 15.8856803,49.397636 L15.875,49.2125 L15.875,42.8625 C15.875,42.0483731 16.4878388,41.3773824 17.277364,41.2856803 L17.4625,41.275 L36.5125,41.275 C37.389252,41.275 38.1,41.985748 38.1,42.8625 C38.1,43.6766269 37.4871612,44.3476176 36.697636,44.4393197 L36.5125,44.45 L19.0492063,44.4487049 L19.0492063,47.6237049 L95.2492063,47.6237049 L95.2492063,44.4487049 L46.0375,44.45 C45.2233731,44.45 44.5523824,43.8371612 44.4606803,43.047636 L44.45,42.8625 C44.45,42.0483731 45.0628388,41.3773824 45.852364,41.2856803 L46.0375,41.275 L67.584855,41.2743561 C67.5906957,41.265502 67.5966354,41.2566909 67.6026741,41.2479244 L67.7165493,41.1015624 L78.8278687,28.4029117 C79.4052139,27.7430885 80.4081371,27.676227 81.0679602,28.2535723 C81.6806532,28.7896786 81.782068,29.6927373 81.3311749,30.3473017 L81.2172997,30.4936638 L71.7834939,41.2740091 L79.2874939,41.2740091 L79.3206423,41.2302229 L94.2673702,23.2920864 L90.1429966,19.1681791 L85.6167597,24.3412053 C85.0806534,24.9538982 84.1775948,25.055313 83.5230303,24.6044199 L83.3766682,24.4905447 C82.7639753,23.9544384 82.6625604,23.0513797 83.1134535,22.3968152 L83.2273287,22.2504532 L88.8704781,15.8011396 C89.4348765,15.1561129 90.3986601,15.0822734 91.0525973,15.6032361 Z" id="🎨--Major-color" fill="#000091"></path>
                </g>
            </g>
        </g>
    </g>
</svg>